<?xml version="1.0" encoding="utf-8"?>
<!-- Generator: Adobe Illustrator 26.0.1, SVG Export Plug-In . SVG Version: 6.00 Build 0)  -->
<svg version="1.1" xmlns="http://www.w3.org/2000/svg" xmlns:xlink="http://www.w3.org/1999/xlink" x="0px" y="0px"
	 viewBox="0 0 1920 1465" style="enable-background:new 0 0 1920 1465;" xml:space="preserve">
<style type="text/css">
	.st0{opacity:0.5;fill:#D4F2F5;}
	.st1{opacity:0.25;fill:url(#SVGID_1_);}
	.st2{opacity:0.5;fill:url(#SVGID_00000114060407808504075710000003805437870958319760_);}
	.st3{display:none;}
	.st4{display:inline;opacity:0.4;fill:url(#SVGID_00000080196545268638701200000008175542573513670023_);}
	.st5{display:inline;opacity:0.3;fill:url(#SVGID_00000054261939709893981300000003758183160960613251_);}
	.st6{display:inline;opacity:0.5;}
	.st7{fill:none;stroke:url(#SVGID_00000000906450048885382820000015609227490969240235_);stroke-width:1.5;stroke-miterlimit:10;}
	.st8{fill:none;stroke:url(#SVGID_00000032624318391660440120000000681374652670322313_);stroke-width:1.5;stroke-miterlimit:10;}
	.st9{fill:none;stroke:url(#SVGID_00000086659330526772082540000003765743691100610726_);stroke-width:1.5;stroke-miterlimit:10;}
	.st10{fill:none;stroke:url(#SVGID_00000162338001000112409170000017018522635522609025_);stroke-width:1.5;stroke-miterlimit:10;}
	.st11{fill:none;stroke:url(#SVGID_00000003079042800140768580000009526470082075069097_);stroke-width:1.5;stroke-miterlimit:10;}
	.st12{fill:none;stroke:url(#SVGID_00000143615533818844284650000000768363283729436809_);stroke-width:1.5;stroke-miterlimit:10;}
	.st13{fill:none;stroke:url(#SVGID_00000080929516981615279180000006289483315559605434_);stroke-width:1.5;stroke-miterlimit:10;}
	.st14{display:inline;opacity:0.4;fill:url(#SVGID_00000180333121807640719500000014645024980519284610_);}
	.st15{display:inline;opacity:0.5;fill:url(#SVGID_00000116930430884958144760000004848313961484255926_);}
	.st16{display:inline;opacity:0.3;fill:url(#SVGID_00000059297339514796581380000018023723353323730840_);}
	.st17{display:inline;opacity:0.45;fill:url(#SVGID_00000064317370701734694040000003385436738767684287_);}
	.st18{display:inline;opacity:0.3;fill:url(#SVGID_00000083797598344531359820000001374518888698662319_);}
	.st19{display:inline;fill:url(#SVGID_00000148657402239272698170000010689698992203053703_);}
	.st20{opacity:0.4;fill:url(#SVGID_00000054231869239588368580000007334380092237211582_);}
	.st21{fill:none;stroke:url(#SVGID_00000018957728457314446870000007346644088348754101_);stroke-width:2;stroke-miterlimit:10;}
	.st22{opacity:0.2;fill:url(#SVGID_00000021109219510580243280000008845128492712119433_);}
	.st23{fill:url(#SVGID_00000015332963545341113190000002082994423407338671_);}
	.st24{fill:none;stroke:url(#SVGID_00000127045009444511049850000000492583633233739444_);stroke-width:2;stroke-miterlimit:10;}
	.st25{opacity:0.7;}
	.st26{fill:none;stroke:url(#SVGID_00000047779858635050631790000006478224011128631714_);stroke-width:1.5;stroke-miterlimit:10;}
	.st27{fill:none;stroke:url(#SVGID_00000018228577943212668490000006313762041735570067_);stroke-width:1.5;stroke-miterlimit:10;}
	.st28{fill:none;stroke:url(#SVGID_00000159438959455772326260000005866938436606864048_);stroke-width:1.5;stroke-miterlimit:10;}
	.st29{fill:none;stroke:url(#SVGID_00000075158612066365245680000015738334883891989397_);stroke-width:1.5;stroke-miterlimit:10;}
	.st30{fill:none;stroke:url(#SVGID_00000040562310967064257980000011626273203028769724_);stroke-width:1.5;stroke-miterlimit:10;}
	.st31{fill:none;stroke:url(#SVGID_00000011026606411776371110000008176610730253629114_);stroke-width:1.5;stroke-miterlimit:10;}
	.st32{fill:url(#SVGID_00000183971701997797713270000005506385146167041666_);}
	.st33{fill:url(#SVGID_00000080194593724986631360000017665633425726677901_);}
	.st34{fill:url(#SVGID_00000073697310879942248890000002107082670389497992_);}
	.st35{fill:url(#SVGID_00000078745581969713635040000008459473734032842138_);}
	.st36{fill:url(#SVGID_00000144324800045968268170000000949012154394906773_);}
	.st37{fill:url(#SVGID_00000008870567861713980760000002315881433957499053_);}
	.st38{fill:none;stroke:url(#SVGID_00000093878355777158634310000013024792541923722380_);stroke-width:2;stroke-miterlimit:10;}
	.st39{fill:url(#SVGID_00000031167219687908271540000018078378033980940951_);}
	.st40{opacity:0.6;}
	.st41{fill:none;stroke:url(#SVGID_00000023264591037455543540000015270122102578795149_);stroke-width:1.5;stroke-miterlimit:10;}
	.st42{fill:none;stroke:url(#SVGID_00000119816213860845461550000017821382184970374067_);stroke-width:1.5;stroke-miterlimit:10;}
	.st43{fill:none;stroke:url(#SVGID_00000067957226714347103830000006810891322929348779_);stroke-width:1.5;stroke-miterlimit:10;}
	.st44{fill:none;stroke:url(#SVGID_00000172419222064282457800000000773783524202439053_);stroke-width:1.5;stroke-miterlimit:10;}
	.st45{fill:none;stroke:url(#SVGID_00000075851877002756769400000006843161986250820499_);stroke-width:1.5;stroke-miterlimit:10;}
	.st46{fill:url(#SVGID_00000170265311491316300260000007625036461291963009_);}
	.st47{fill:url(#SVGID_00000039819307235933626040000001001880310166334892_);}
	.st48{fill:url(#SVGID_00000015336900807262357880000018062269923464416144_);}
	.st49{fill:url(#SVGID_00000128468710796559526810000015385639688897526926_);}
	.st50{fill:url(#SVGID_00000025425738140920872230000008793546304624927402_);}
	.st51{fill:url(#SVGID_00000004530328743820326230000017622087694983954352_);}
	.st52{fill:none;stroke:url(#SVGID_00000112625971118551141740000008261737526719308692_);stroke-width:2;stroke-miterlimit:10;}
	.st53{fill:url(#SVGID_00000183223818320970605690000005643011711955415740_);}
	.st54{opacity:0.5;fill:url(#SVGID_00000071557225587081089440000005998966083608243120_);}
	
		.st55{fill:none;stroke:url(#SVGID_00000165195903879876922460000014870756242513330330_);stroke-width:1.9093;stroke-miterlimit:10;}
	.st56{fill:url(#SVGID_00000073695272904767683330000004862759078961643142_);}
	.st57{fill:none;stroke:url(#SVGID_00000025402018897537732730000002365272524043025817_);stroke-width:1.5;stroke-miterlimit:10;}
	.st58{opacity:0.2;fill:url(#SVGID_00000164485862803526669950000004546493813910685829_);}
	.st59{fill:url(#SVGID_00000026156373050307574520000008334224709673959063_);}
</style>
<g id="Background">
	<rect x="0" y="1" class="st0" width="1920" height="1462"/>
</g>
<g id="Illustration">
	<linearGradient id="SVGID_1_" gradientUnits="userSpaceOnUse" x1="1" y1="655.5" x2="1920" y2="655.5">
		<stop  offset="4.166921e-04" style="stop-color:#1876C8"/>
		<stop  offset="1.749982e-02" style="stop-color:#2E8DCE"/>
		<stop  offset="4.422095e-02" style="stop-color:#4BACD5"/>
		<stop  offset="7.044911e-02" style="stop-color:#5FC1DB"/>
		<stop  offset="9.569764e-02" style="stop-color:#6CCFDE"/>
		<stop  offset="0.1189" style="stop-color:#70D3DF"/>
		<stop  offset="0.2404" style="stop-color:#3A99D1"/>
		<stop  offset="0.311" style="stop-color:#1876C8"/>
		<stop  offset="0.3437" style="stop-color:#2E8DCE"/>
		<stop  offset="0.395" style="stop-color:#4BACD5"/>
		<stop  offset="0.4452" style="stop-color:#5FC1DB"/>
		<stop  offset="0.4936" style="stop-color:#6CCFDE"/>
		<stop  offset="0.538" style="stop-color:#70D3DF"/>
		<stop  offset="0.6058" style="stop-color:#53B5D7;stop-opacity:0.8237"/>
		<stop  offset="0.6833" style="stop-color:#3999D1;stop-opacity:0.622"/>
		<stop  offset="0.7619" style="stop-color:#2786CC;stop-opacity:0.4177"/>
		<stop  offset="0.8412" style="stop-color:#1C7AC9;stop-opacity:0.2113"/>
		<stop  offset="0.9224" style="stop-color:#1876C8;stop-opacity:0"/>
	</linearGradient>
	<path class="st1" d="M1920,477v301.8c-48.3,2.9-86.8,14-112.1,23.3c-98,40.1-166,36.2-200,26c-84.2-25.2-136.4-79.5-203.2-102.1
		c-18.8-6.4-38.7-10.2-60.8-10.2c-64.8,0-108.7,29.4-161.7,57.6c-0.8,0.4-1.6,0.8-2.4,1.3c-24.3,12.9-50.6,25.4-81.8,34.8v0.4
		c-59,16-102.3,28.2-171.7,25.6c-59.7-2.2-107.8-9.3-138.6-26.2c-0.5-0.2-0.9-0.5-1.4-0.8c-50.5-28.7-83.1-45.7-115.2-54
		c-17.8-4.6-35.5-6.5-55.9-6.2c-11.6,0.2-24.2,1.1-38.2,2.6c-99.3,10.8-154.9,80-228.3,111.5C326.7,872,303,878,276,878
		c-103.3,0-136.6-112.9-275-81V440.6h3c51.3,0,94.1,11.7,131.9,28.6c98.5,44,162.7,123.3,253,123.3c90.2,0,144-72.7,231.6-114.3
		c10.3-4.9,21.1-9.4,32.4-13.2c34-11.6,102-16,200,29.6c26.9,11.2,68.6,24.7,121,27c68.5,3,94.3-14.7,124.1-27v0.1
		c51.4-23.2,88-61.5,152.9-61.5c11.5,0,22.4,0.6,32.7,1.7c93.7,10.2,142.1,63.2,254.5,92.3c39.3,10.2,117.9,14.1,231.2-26
		c31.1-9.9,79.3-21.8,139.9-23.8C1912.8,477.1,1916.4,477,1920,477z"/>
	
		<linearGradient id="SVGID_00000128446715324991214400000014726874008822039945_" gradientUnits="userSpaceOnUse" x1="516" y1="983.4545" x2="1519" y2="983.4545" gradientTransform="matrix(1 0 0 -1 418 1573.8188)">
		<stop  offset="0" style="stop-color:#FF96BF"/>
		<stop  offset="0.3614" style="stop-color:#70D3DF"/>
		<stop  offset="0.7855" style="stop-color:#70D3DF;stop-opacity:0"/>
	</linearGradient>
	<path style="opacity:0.5;fill:url(#SVGID_00000128446715324991214400000014726874008822039945_);" d="M1937,645.3v-71.5
		c-31.1-10-79.8-21.5-139.7-19.2c-52.4,2-88.3,17.4-117.3,32.4c-85.4,43-130,51-187,34c-107.6-32.1-147-122-252-111
		c-99.4,10.4-129,154-307,123c0,0,22.7,19.1,75,22c164,9,175-114.4,284-112c89,2,132,96,218,121c55.1,16,120,7,187-28
		c37-16,66.3-25,111-23C1868.1,615.7,1911.3,634.7,1937,645.3z"/>
	<g class="st3">
		
			<linearGradient id="SVGID_00000154409235122674005490000003083710091666761886_" gradientUnits="userSpaceOnUse" x1="-2073.3582" y1="3427.3701" x2="-2035.9542" y2="3427.3701" gradientTransform="matrix(0.4523 -0.8919 0.8919 0.4523 -827.8608 -2030.7374)">
			<stop  offset="0" style="stop-color:#45B6FF"/>
			<stop  offset="1.064861e-02" style="stop-color:#47B3FF"/>
			<stop  offset="0.1466" style="stop-color:#5B8EFF"/>
			<stop  offset="0.2896" style="stop-color:#6C70FF"/>
			<stop  offset="0.4393" style="stop-color:#7959FF"/>
			<stop  offset="0.5989" style="stop-color:#8248FF"/>
			<stop  offset="0.775" style="stop-color:#873EFF"/>
			<stop  offset="1" style="stop-color:#893BFF"/>
		</linearGradient>
		
			<circle style="display:inline;opacity:0.4;fill:url(#SVGID_00000154409235122674005490000003083710091666761886_);" cx="1299.6" cy="1351.9" r="18.7"/>
		
			<linearGradient id="SVGID_00000020358422792706208230000001210110910438533003_" gradientUnits="userSpaceOnUse" x1="-2263.3501" y1="2430.4939" x2="-2235.3379" y2="2430.4939" gradientTransform="matrix(0.4523 -0.8919 0.8919 0.4523 -827.8608 -2030.7374)">
			<stop  offset="0" style="stop-color:#45B6FF"/>
			<stop  offset="1.064861e-02" style="stop-color:#47B3FF"/>
			<stop  offset="0.1466" style="stop-color:#5B8EFF"/>
			<stop  offset="0.2896" style="stop-color:#6C70FF"/>
			<stop  offset="0.4393" style="stop-color:#7959FF"/>
			<stop  offset="0.5989" style="stop-color:#8248FF"/>
			<stop  offset="0.775" style="stop-color:#873EFF"/>
			<stop  offset="1" style="stop-color:#893BFF"/>
		</linearGradient>
		
			<circle style="display:inline;opacity:0.3;fill:url(#SVGID_00000020358422792706208230000001210110910438533003_);" cx="322.4" cy="1074.7" r="14"/>
		<g class="st6">
			
				<linearGradient id="SVGID_00000153687372235263041160000008289537132563234227_" gradientUnits="userSpaceOnUse" x1="1961.7367" y1="2723.8752" x2="2127.4861" y2="2723.8752" gradientTransform="matrix(-1.9613 -0.9482 -3.1235 1.419 12785.1611 -662.7272)">
				<stop  offset="0.1583" style="stop-color:#D4F2F5"/>
				<stop  offset="1" style="stop-color:#45B6FF"/>
			</linearGradient>
			
				<line style="fill:none;stroke:url(#SVGID_00000153687372235263041160000008289537132563234227_);stroke-width:1.5;stroke-miterlimit:10;" x1="215.4" y1="1438.7" x2="318.5" y2="1088.7"/>
			
				<linearGradient id="SVGID_00000169551496989254671680000014621707084952918403_" gradientUnits="userSpaceOnUse" x1="2288.1206" y1="3126.0457" x2="2416.3955" y2="3126.0457" gradientTransform="matrix(-3.2732 -1.9701 -6.0396 1.5957 26902.6328 875.6975)">
				<stop  offset="0.1583" style="stop-color:#D4F2F5"/>
				<stop  offset="1" style="stop-color:#45B6FF"/>
			</linearGradient>
			
				<line style="fill:none;stroke:url(#SVGID_00000169551496989254671680000014621707084952918403_);stroke-width:1.5;stroke-miterlimit:10;" x1="215.4" y1="1438.7" x2="430.5" y2="1020.9"/>
			
				<linearGradient id="SVGID_00000117676280185061893960000002631390212401302402_" gradientUnits="userSpaceOnUse" x1="2548.8628" y1="2889.5913" x2="2721.1733" y2="2889.5913" gradientTransform="matrix(-2.5074 -2.0846 -5.2801 0.6021 22303.5312 4963.4048)">
				<stop  offset="0.1583" style="stop-color:#D4F2F5"/>
				<stop  offset="1" style="stop-color:#45B6FF"/>
			</linearGradient>
			
				<line style="fill:none;stroke:url(#SVGID_00000117676280185061893960000002631390212401302402_);stroke-width:1.5;stroke-miterlimit:10;" x1="215.4" y1="1438.7" x2="663" y2="981.6"/>
			
				<linearGradient id="SVGID_00000168088275817158800750000004791294454362857105_" gradientUnits="userSpaceOnUse" x1="2702.1587" y1="2896.8672" x2="2824.9233" y2="2896.8672" gradientTransform="matrix(-2.5637 -2.8325 -6.243 -0.219 26146.1094 9760.8428)">
				<stop  offset="0.1583" style="stop-color:#D4F2F5"/>
				<stop  offset="1" style="stop-color:#45B6FF"/>
			</linearGradient>
			
				<line style="fill:none;stroke:url(#SVGID_00000168088275817158800750000004791294454362857105_);stroke-width:1.5;stroke-miterlimit:10;" x1="215.4" y1="1438.7" x2="1736.6" y2="1159.1"/>
			
				<linearGradient id="SVGID_00000054265972447631354150000014362321976686161298_" gradientUnits="userSpaceOnUse" x1="3371.563" y1="2313.8425" x2="3548.2422" y2="2313.8425" gradientTransform="matrix(-1.2153 -1.8768 -3.5658 -0.6354 12872.3965 9292.4785)">
				<stop  offset="0.1583" style="stop-color:#D4F2F5"/>
				<stop  offset="1" style="stop-color:#45B6FF"/>
			</linearGradient>
			
				<line style="fill:none;stroke:url(#SVGID_00000054265972447631354150000014362321976686161298_);stroke-width:1.5;stroke-miterlimit:10;" x1="215.4" y1="1438.7" x2="618.1" y2="1218.8"/>
			
				<linearGradient id="SVGID_00000072270901737531548880000011259292737843841669_" gradientUnits="userSpaceOnUse" x1="3122.0879" y1="2788.7637" x2="3408.6978" y2="2788.7637" gradientTransform="matrix(-1.4976 -3.2321 -5.4893 -1.8513 20916.8633 16935.7051)">
				<stop  offset="0.1583" style="stop-color:#D4F2F5"/>
				<stop  offset="1" style="stop-color:#45B6FF"/>
			</linearGradient>
			
				<line style="fill:none;stroke:url(#SVGID_00000072270901737531548880000011259292737843841669_);stroke-width:1.5;stroke-miterlimit:10;" x1="215.4" y1="1438.7" x2="1221.1" y2="999"/>
			
				<linearGradient id="SVGID_00000012471291420663703250000004575274012437887112_" gradientUnits="userSpaceOnUse" x1="3228.8105" y1="2858.3699" x2="3434.5483" y2="2858.3699" gradientTransform="matrix(-1.1129 -3.6547 -5.555 -2.8575 20334.4082 21741.6367)">
				<stop  offset="0.1583" style="stop-color:#D4F2F5"/>
				<stop  offset="1" style="stop-color:#45B6FF"/>
			</linearGradient>
			
				<line style="fill:none;stroke:url(#SVGID_00000012471291420663703250000004575274012437887112_);stroke-width:1.5;stroke-miterlimit:10;" x1="215.4" y1="1438.7" x2="1281.4" y2="1356.3"/>
		</g>
		
			<linearGradient id="SVGID_00000180349101107470339460000013920394781857442470_" gradientUnits="userSpaceOnUse" x1="-850.6691" y1="3064.1489" x2="-830.1725" y2="3064.1489" gradientTransform="matrix(0.5292 -0.8485 0.8485 0.5292 -925.3345 -1342.7469)">
			<stop  offset="0" style="stop-color:#45B6FF"/>
			<stop  offset="1" style="stop-color:#893BFF"/>
		</linearGradient>
		
			<circle style="display:inline;opacity:0.4;fill:url(#SVGID_00000180349101107470339460000013920394781857442470_);" cx="1229.9" cy="991.9" r="10.2"/>
		
			<linearGradient id="SVGID_00000120538745234225798360000001900510029891125399_" gradientUnits="userSpaceOnUse" x1="-1131.3964" y1="2579.2058" x2="-1110.8998" y2="2579.2058" gradientTransform="matrix(0.5292 -0.8485 0.8485 0.5292 -925.3345 -1342.7469)">
			<stop  offset="0" style="stop-color:#45B6FF"/>
			<stop  offset="1" style="stop-color:#893BFF"/>
		</linearGradient>
		
			<circle style="display:inline;opacity:0.5;fill:url(#SVGID_00000120538745234225798360000001900510029891125399_);" cx="669.8" cy="973.4" r="10.2"/>
		
			<linearGradient id="SVGID_00000033343779413775656110000013685206072268963214_" gradientUnits="userSpaceOnUse" x1="-1357.4377" y1="2669.8337" x2="-1336.9412" y2="2669.8337" gradientTransform="matrix(0.5292 -0.8485 0.8485 0.5292 -925.3345 -1342.7469)">
			<stop  offset="0" style="stop-color:#45B6FF"/>
			<stop  offset="1" style="stop-color:#893BFF"/>
		</linearGradient>
		
			<circle style="display:inline;opacity:0.3;fill:url(#SVGID_00000033343779413775656110000013685206072268963214_);" cx="627.1" cy="1213.2" r="10.2"/>
		
			<linearGradient id="SVGID_00000057115854105994136260000012233369673821352613_" gradientUnits="userSpaceOnUse" x1="-1288.0553" y1="2401.241" x2="-1267.5587" y2="2401.241" gradientTransform="matrix(0.5292 -0.8485 0.8485 0.5292 -925.3345 -1342.7469)">
			<stop  offset="0" style="stop-color:#45B6FF"/>
			<stop  offset="1" style="stop-color:#893BFF"/>
		</linearGradient>
		
			<circle style="display:inline;opacity:0.45;fill:url(#SVGID_00000057115854105994136260000012233369673821352613_);" cx="435.9" cy="1012.2" r="10.2"/>
		
			<linearGradient id="SVGID_00000049922094223728874390000010653994008712085438_" gradientUnits="userSpaceOnUse" x1="-1692.3091" y1="3747.2705" x2="-1648.3993" y2="3747.2705" gradientTransform="matrix(0.4523 -0.8919 0.8919 0.4523 -827.8608 -2030.7374)">
			<stop  offset="0" style="stop-color:#45B6FF"/>
			<stop  offset="1.064861e-02" style="stop-color:#47B3FF"/>
			<stop  offset="0.1466" style="stop-color:#5B8EFF"/>
			<stop  offset="0.2896" style="stop-color:#6C70FF"/>
			<stop  offset="0.4393" style="stop-color:#7959FF"/>
			<stop  offset="0.5989" style="stop-color:#8248FF"/>
			<stop  offset="0.775" style="stop-color:#873EFF"/>
			<stop  offset="1" style="stop-color:#893BFF"/>
		</linearGradient>
		
			<circle style="display:inline;opacity:0.3;fill:url(#SVGID_00000049922094223728874390000010653994008712085438_);" cx="1758.7" cy="1153.9" r="22"/>
		
			<linearGradient id="SVGID_00000048468115479942084020000004511951541297503883_" gradientUnits="userSpaceOnUse" x1="-2667.9773" y1="2183.0198" x2="-2609.3865" y2="2183.0198" gradientTransform="matrix(-0.6789 -0.7342 0.7342 -0.6789 -3178.8115 983.4503)">
			<stop  offset="0" style="stop-color:#45B6FF"/>
			<stop  offset="1" style="stop-color:#893BFF"/>
		</linearGradient>
		
			<circle style="display:inline;fill:url(#SVGID_00000048468115479942084020000004511951541297503883_);" cx="215.4" cy="1438.7" r="29.3"/>
	</g>
	
		<linearGradient id="SVGID_00000181769474300942208760000013680865129823859335_" gradientUnits="userSpaceOnUse" x1="1" y1="761.7073" x2="1077" y2="761.7073">
		<stop  offset="0" style="stop-color:#FF96BF"/>
		<stop  offset="0.5256" style="stop-color:#70D3DF"/>
		<stop  offset="1" style="stop-color:#70D3DF;stop-opacity:0"/>
	</linearGradient>
	<path style="opacity:0.4;fill:url(#SVGID_00000181769474300942208760000013680865129823859335_);" d="M1077,707.6v82.8
		c-36,11.6-92.3,24.8-161.7,22.2c-38.4-1.5-71.9-7.4-99.2-14.5c-15.7-4-29.4-8.5-40.8-12.5c-38.9-15.7-73.7-25.4-104.2-31
		c-20.6-3.8-39.3-5.6-55.9-6.2c-30.5-1-54.3,2.7-71,7.6c-105,30.9-143.9,85.6-218.6,95.6c-14,1.9-29.3,2.2-46.5,0.4
		c-38.8-3.9-70.7-35.4-110.1-67.6c-14.6-11.9-30.2-23.9-47.6-34.7c-28-17.3-60.6-31.3-100.8-36.5c-3.8-0.5-7.6-0.9-11.6-1.2
		c-2.6-0.2-5.2-0.4-7.9-0.5V682c29.2,1.3,54.7,5.8,77.7,12.4c55.5,15.8,95.7,43.5,134.5,67.4c39,23.9,76.6,43.9,126.8,43.9
		c69.1,0,116.8-42.7,174.8-81.4c26.6-17.7,55.3-34.6,89.2-46.2c34-11.6,102-16,200,29.6c26.9,11.2,68.6,24.7,121,27
		c19.8,0.9,38.5,0,55.6-2C1022.6,727.8,1055.9,716.3,1077,707.6z"/>
	
		<linearGradient id="SVGID_00000010995205881778260860000009901983143479365253_" gradientUnits="userSpaceOnUse" x1="1" y1="824.1447" x2="1426.6541" y2="824.1447">
		<stop  offset="0.1583" style="stop-color:#D4F2F5"/>
		<stop  offset="1" style="stop-color:#45B6FF"/>
	</linearGradient>
	
		<path style="fill:none;stroke:url(#SVGID_00000010995205881778260860000009901983143479365253_);stroke-width:2;stroke-miterlimit:10;" d="
		M1,775c24.4,0,41.4,0,80,0c33.4,0,62.2,3.5,87.9,9.4c63.6,14.5,108.1,43.1,156.7,67.2c7.6,3.8,15.3,7.4,23.2,10.9
		C399,884.6,457.1,899.3,546,888c91.4-11.6,222-70,222-70s7.2-3.5,19.7-8.7c7.7-3.2,17.3-7.1,28.4-11.2
		c38.3-14.3,94.4-32,148.9-37.1c35.3-3.3,66.6-5,95.6-4.6c5.6,0.1,11,0.2,16.4,0.5c37.3,1.6,71.1,6.8,105.2,16.6c0,0,0,0,0,0
		c1.7,0.5,3.3,0.9,4.9,1.4h0c5.2,1.6,10.5,3.2,15.8,5c55.4,18.7,108.9,36.3,167,30c20.9-2.3,39.5-6.7,56.3-12.7"/>
	
		<linearGradient id="SVGID_00000108302998927034560750000005054081859446964155_" gradientUnits="userSpaceOnUse" x1="-865.7579" y1="959.1765" x2="-808.3819" y2="959.1765" gradientTransform="matrix(0.9099 -0.4147 0.4147 0.9099 1804.2197 -431.6223)">
		<stop  offset="0" style="stop-color:#45B6FF"/>
		<stop  offset="1" style="stop-color:#893BFF"/>
	</linearGradient>
	
		<circle style="opacity:0.2;fill:url(#SVGID_00000108302998927034560750000005054081859446964155_);" cx="1440.3" cy="788.3" r="28.7"/>
	
		<linearGradient id="SVGID_00000062177947048730323500000004082122729795372221_" gradientUnits="userSpaceOnUse" x1="-852.7541" y1="959.1765" x2="-821.3857" y2="959.1765" gradientTransform="matrix(0.9099 -0.4147 0.4147 0.9099 1804.2197 -431.6223)">
		<stop  offset="0" style="stop-color:#45B6FF"/>
		<stop  offset="1" style="stop-color:#893BFF"/>
	</linearGradient>
	<circle style="fill:url(#SVGID_00000062177947048730323500000004082122729795372221_);" cx="1440.3" cy="788.3" r="15.7"/>
	
		<linearGradient id="SVGID_00000170257339700617760070000001921948633997148845_" gradientUnits="userSpaceOnUse" x1="0.7218" y1="590.1546" x2="1453.6266" y2="590.1546">
		<stop  offset="0.1583" style="stop-color:#D4F2F5"/>
		<stop  offset="1" style="stop-color:#45B6FF"/>
	</linearGradient>
	
		<path style="fill:none;stroke:url(#SVGID_00000170257339700617760070000001921948633997148845_);stroke-width:2;stroke-miterlimit:10;" d="
		M1,526.6c2.9,0.8,5.8,1.7,8.6,2.6c76.4,24,137.3,65.3,137.3,65.3s6.1,4.2,16.7,10.7c15.7,9.6,41.3,24,71.2,36.6
		c37,15.6,80.8,28.4,121,25.7c197-13,217.7-126.5,382.8-150.5c19.4-2.8,40.8-4.4,64.6-4.5c5.7,0,11.3,0.1,16.9,0.4
		c44.4,2,83.8,11.9,116.7,24.2c50.5,18.9,85.5,43.2,99.7,52.4c49,32,139.2,81.2,233,74c91-7,158-50,183.5-70.5"/>
	<g class="st25">
		<g>
			
				<linearGradient id="SVGID_00000145059787717083930020000003967433388783030965_" gradientUnits="userSpaceOnUse" x1="1627.9216" y1="315.0203" x2="1661.8281" y2="315.0203" gradientTransform="matrix(1.4902 0.1997 -0.9846 1.1211 -626.859 -126.038)">
				<stop  offset="0.1583" style="stop-color:#D4F2F5"/>
				<stop  offset="1" style="stop-color:#45B6FF"/>
			</linearGradient>
			
				<line style="fill:none;stroke:url(#SVGID_00000145059787717083930020000003967433388783030965_);stroke-width:1.5;stroke-miterlimit:10;" x1="1461.2" y1="585" x2="1567" y2="526.4"/>
			
				<linearGradient id="SVGID_00000143615792286913606960000006085581292405244560_" gradientUnits="userSpaceOnUse" x1="1538.9438" y1="71.4086" x2="1574.8121" y2="71.4086" gradientTransform="matrix(1.3525 -0.6567 -0.2014 1.4784 -603.6461 1470.1158)">
				<stop  offset="0.1583" style="stop-color:#D4F2F5"/>
				<stop  offset="1" style="stop-color:#45B6FF"/>
			</linearGradient>
			
				<line style="fill:none;stroke:url(#SVGID_00000143615792286913606960000006085581292405244560_);stroke-width:1.5;stroke-miterlimit:10;" x1="1461.2" y1="585" x2="1514" y2="521.6"/>
			
				<linearGradient id="SVGID_00000129891550662417393690000014421876828692749992_" gradientUnits="userSpaceOnUse" x1="1691.3519" y1="-152.4509" x2="1723.1946" y2="-152.4509" gradientTransform="matrix(0.338 -1.465 1.0243 1.085 1029.0286 3211.499)">
				<stop  offset="0.1583" style="stop-color:#D4F2F5"/>
				<stop  offset="1" style="stop-color:#45B6FF"/>
			</linearGradient>
			
				<line style="fill:none;stroke:url(#SVGID_00000129891550662417393690000014421876828692749992_);stroke-width:1.5;stroke-miterlimit:10;" x1="1461.2" y1="585" x2="1438.6" y2="504.9"/>
			
				<linearGradient id="SVGID_00000160899234679146576360000007606785531243935391_" gradientUnits="userSpaceOnUse" x1="1786.9583" y1="531.6663" x2="1807.4056" y2="531.6663" gradientTransform="matrix(1.2475 0.8392 -1.3794 0.5689 -15.0508 -1226.0723)">
				<stop  offset="0.1583" style="stop-color:#D4F2F5"/>
				<stop  offset="1" style="stop-color:#45B6FF"/>
			</linearGradient>
			
				<line style="fill:none;stroke:url(#SVGID_00000160899234679146576360000007606785531243935391_);stroke-width:1.5;stroke-miterlimit:10;" x1="1461.2" y1="585" x2="1525.8" y2="584.3"/>
			
				<linearGradient id="SVGID_00000114038807384537491220000002402034825585808277_" gradientUnits="userSpaceOnUse" x1="2015.67" y1="694.2938" x2="2035.2302" y2="694.2938" gradientTransform="matrix(0.6708 1.3456 -1.4805 -0.186 1169.6083 -1994.9244)">
				<stop  offset="0.1583" style="stop-color:#D4F2F5"/>
				<stop  offset="1" style="stop-color:#45B6FF"/>
			</linearGradient>
			
				<line style="fill:none;stroke:url(#SVGID_00000114038807384537491220000002402034825585808277_);stroke-width:1.5;stroke-miterlimit:10;" x1="1461.2" y1="585" x2="1539.4" y2="617.7"/>
			
				<linearGradient id="SVGID_00000175291267900470192530000013972621107607632056_" gradientUnits="userSpaceOnUse" x1="1538.6899" y1="56.2984" x2="1558.1138" y2="56.2984" gradientTransform="matrix(1.3525 -0.6567 -0.2014 1.4784 -603.6461 1470.1158)">
				<stop  offset="0.1583" style="stop-color:#D4F2F5"/>
				<stop  offset="1" style="stop-color:#45B6FF"/>
			</linearGradient>
			
				<line style="fill:none;stroke:url(#SVGID_00000175291267900470192530000013972621107607632056_);stroke-width:1.5;stroke-miterlimit:10;" x1="1461.2" y1="585" x2="1497.2" y2="488.1"/>
		</g>
		
			<linearGradient id="SVGID_00000118378427540769338550000003515044870699396503_" gradientUnits="userSpaceOnUse" x1="1430" y1="500.5" x2="1445" y2="500.5">
			<stop  offset="0" style="stop-color:#45B6FF"/>
			<stop  offset="1" style="stop-color:#893BFF"/>
		</linearGradient>
		<path style="fill:url(#SVGID_00000118378427540769338550000003515044870699396503_);" d="M1437.5,508L1437.5,508
			c4.1,0,7.5-3.4,7.5-7.5l0,0c0-4.1-3.4-7.5-7.5-7.5l0,0c-4.1,0-7.5,3.4-7.5,7.5l0,0C1430,504.6,1433.4,508,1437.5,508z"/>
		
			<linearGradient id="SVGID_00000054250270083077608630000006969743872508652675_" gradientUnits="userSpaceOnUse" x1="1491" y1="484.5" x2="1506" y2="484.5">
			<stop  offset="0" style="stop-color:#45B6FF"/>
			<stop  offset="1" style="stop-color:#893BFF"/>
		</linearGradient>
		<path style="fill:url(#SVGID_00000054250270083077608630000006969743872508652675_);" d="M1498.5,492L1498.5,492
			c4.1,0,7.5-3.4,7.5-7.5l0,0c0-4.1-3.4-7.5-7.5-7.5l0,0c-4.1,0-7.5,3.4-7.5,7.5l0,0C1491,488.6,1494.4,492,1498.5,492z"/>
		
			<linearGradient id="SVGID_00000029737617735942098940000010689379936868005817_" gradientUnits="userSpaceOnUse" x1="1508" y1="518.5" x2="1523" y2="518.5">
			<stop  offset="0" style="stop-color:#45B6FF"/>
			<stop  offset="1" style="stop-color:#893BFF"/>
		</linearGradient>
		<path style="fill:url(#SVGID_00000029737617735942098940000010689379936868005817_);" d="M1515.5,526L1515.5,526
			c4.1,0,7.5-3.4,7.5-7.5l0,0c0-4.1-3.4-7.5-7.5-7.5l0,0c-4.1,0-7.5,3.4-7.5,7.5l0,0C1508,522.6,1511.4,526,1515.5,526z"/>
		
			<linearGradient id="SVGID_00000051381128761661773100000007565493635565441920_" gradientUnits="userSpaceOnUse" x1="1562" y1="522.5" x2="1577" y2="522.5">
			<stop  offset="0" style="stop-color:#45B6FF"/>
			<stop  offset="1" style="stop-color:#893BFF"/>
		</linearGradient>
		<path style="fill:url(#SVGID_00000051381128761661773100000007565493635565441920_);" d="M1569.5,530L1569.5,530
			c4.1,0,7.5-3.4,7.5-7.5l0,0c0-4.1-3.4-7.5-7.5-7.5l0,0c-4.1,0-7.5,3.4-7.5,7.5l0,0C1562,526.6,1565.4,530,1569.5,530z"/>
		
			<linearGradient id="SVGID_00000021838456825415653990000007570422156960591775_" gradientUnits="userSpaceOnUse" x1="1519" y1="583.5" x2="1534" y2="583.5">
			<stop  offset="0" style="stop-color:#45B6FF"/>
			<stop  offset="1" style="stop-color:#893BFF"/>
		</linearGradient>
		<path style="fill:url(#SVGID_00000021838456825415653990000007570422156960591775_);" d="M1526.5,591L1526.5,591
			c4.1,0,7.5-3.4,7.5-7.5l0,0c0-4.1-3.4-7.5-7.5-7.5l0,0c-4.1,0-7.5,3.4-7.5,7.5l0,0C1519,587.6,1522.4,591,1526.5,591z"/>
		
			<linearGradient id="SVGID_00000020390093348406924640000008904555008941560230_" gradientUnits="userSpaceOnUse" x1="1532" y1="617.5" x2="1547" y2="617.5">
			<stop  offset="0" style="stop-color:#45B6FF"/>
			<stop  offset="1" style="stop-color:#893BFF"/>
		</linearGradient>
		<path style="fill:url(#SVGID_00000020390093348406924640000008904555008941560230_);" d="M1539.5,625L1539.5,625
			c4.1,0,7.5-3.4,7.5-7.5l0,0c0-4.1-3.4-7.5-7.5-7.5l0,0c-4.1,0-7.5,3.4-7.5,7.5l0,0C1532,621.6,1535.4,625,1539.5,625z"/>
	</g>
	
		<linearGradient id="SVGID_00000036241814668065645120000017130640380444191423_" gradientUnits="userSpaceOnUse" x1="1382.964" y1="708.8442" x2="1566.726" y2="708.8442">
		<stop  offset="0" style="stop-color:#D4F2F5"/>
		<stop  offset="0.1343" style="stop-color:#45B6FF"/>
		<stop  offset="1" style="stop-color:#45B6FF"/>
	</linearGradient>
	
		<path style="fill:none;stroke:url(#SVGID_00000036241814668065645120000017130640380444191423_);stroke-width:2;stroke-miterlimit:10;" d="
		M1383,669c0,0,111,4,183,80"/>
	
		<linearGradient id="SVGID_00000170983579751083724780000007281028421393431997_" gradientUnits="userSpaceOnUse" x1="-754.45" y1="781.6046" x2="-707.4399" y2="781.6046" gradientTransform="matrix(0.9099 -0.4147 0.4147 0.9099 1804.2197 -431.6223)">
		<stop  offset="0" style="stop-color:#45B6FF"/>
		<stop  offset="1" style="stop-color:#893BFF"/>
	</linearGradient>
	<circle style="fill:url(#SVGID_00000170983579751083724780000007281028421393431997_);" cx="1463.2" cy="582.7" r="23.5"/>
	<g class="st40">
		<g>
			
				<linearGradient id="SVGID_00000149379512175538017880000006728612754331760315_" gradientUnits="userSpaceOnUse" x1="1908.9871" y1="491.562" x2="1937.9022" y2="491.562" gradientTransform="matrix(0.1968 1.4906 -1.3395 -0.6573 1879.4336 -1756.1854)">
				<stop  offset="0.1583" style="stop-color:#D4F2F5"/>
				<stop  offset="1" style="stop-color:#45B6FF"/>
			</linearGradient>
			
				<line style="fill:none;stroke:url(#SVGID_00000149379512175538017880000006728612754331760315_);stroke-width:1.5;stroke-miterlimit:10;" x1="1564.2" y1="751.2" x2="1634.7" y2="824.3"/>
			
				<linearGradient id="SVGID_00000042001302276042441700000017538131827198768052_" gradientUnits="userSpaceOnUse" x1="1763.4445" y1="339.388" x2="1799.3127" y2="339.388" gradientTransform="matrix(0.9875 1.1338 -1.4797 0.1921 344.8632 -1316.4817)">
				<stop  offset="0.1583" style="stop-color:#D4F2F5"/>
				<stop  offset="1" style="stop-color:#45B6FF"/>
			</linearGradient>
			
				<line style="fill:none;stroke:url(#SVGID_00000042001302276042441700000017538131827198768052_);stroke-width:1.5;stroke-miterlimit:10;" x1="1564.2" y1="751.2" x2="1639.2" y2="785.6"/>
			
				<linearGradient id="SVGID_00000151508433400453472290000012956277432096000928_" gradientUnits="userSpaceOnUse" x1="2046.7821" y1="585.6478" x2="2067.2295" y2="585.6478" gradientTransform="matrix(-0.4839 1.4235 -0.9097 -1.1827 3101.1594 -1453.2488)">
				<stop  offset="0.1583" style="stop-color:#D4F2F5"/>
				<stop  offset="1" style="stop-color:#45B6FF"/>
			</linearGradient>
			
				<line style="fill:none;stroke:url(#SVGID_00000151508433400453472290000012956277432096000928_);stroke-width:1.5;stroke-miterlimit:10;" x1="1564.2" y1="751.2" x2="1581.7" y2="813.3"/>
			
				<linearGradient id="SVGID_00000057855085378754680570000007824715748749897096_" gradientUnits="userSpaceOnUse" x1="2188.0303" y1="603.7502" x2="2207.5903" y2="603.7502" gradientTransform="matrix(-1.1234 0.9992 -0.2075 -1.4776 4152.9878 -510.8011)">
				<stop  offset="0.1583" style="stop-color:#D4F2F5"/>
				<stop  offset="1" style="stop-color:#45B6FF"/>
			</linearGradient>
			
				<line style="fill:none;stroke:url(#SVGID_00000057855085378754680570000007824715748749897096_);stroke-width:1.5;stroke-miterlimit:10;" x1="1564.2" y1="751.2" x2="1553.1" y2="835.2"/>
			
				<linearGradient id="SVGID_00000031194765893799248040000000042258619807843769_" gradientUnits="userSpaceOnUse" x1="1763.1907" y1="324.2777" x2="1782.6145" y2="324.2777" gradientTransform="matrix(0.9875 1.1338 -1.4797 0.1921 344.8632 -1316.4817)">
				<stop  offset="0.1583" style="stop-color:#D4F2F5"/>
				<stop  offset="1" style="stop-color:#45B6FF"/>
			</linearGradient>
			
				<line style="fill:none;stroke:url(#SVGID_00000031194765893799248040000000042258619807843769_);stroke-width:1.5;stroke-miterlimit:10;" x1="1564.2" y1="751.2" x2="1667.2" y2="760.5"/>
		</g>
		
			<linearGradient id="SVGID_00000139990348830467604220000006802190274910985121_" gradientUnits="userSpaceOnUse" x1="1740.6608" y1="733.2616" x2="1755.6608" y2="733.2616" gradientTransform="matrix(0.2614 0.9652 -0.9652 0.2614 1921.6652 -1118.1774)">
			<stop  offset="0" style="stop-color:#45B6FF"/>
			<stop  offset="1" style="stop-color:#893BFF"/>
		</linearGradient>
		<path style="fill:url(#SVGID_00000139990348830467604220000006802190274910985121_);" d="M1663.7,762.8L1663.7,762.8
			c1.1,4,5.2,6.4,9.2,5.3l0,0c4-1.1,6.4-5.2,5.3-9.2l0,0c-1.1-4-5.2-6.4-9.2-5.3l0,0C1665,754.7,1662.6,758.8,1663.7,762.8z"/>
		
			<linearGradient id="SVGID_00000095299009890080039550000012416299111018411958_" gradientUnits="userSpaceOnUse" x1="1757.6608" y1="767.2616" x2="1772.6608" y2="767.2616" gradientTransform="matrix(0.2614 0.9652 -0.9652 0.2614 1921.6652 -1118.1774)">
			<stop  offset="0" style="stop-color:#45B6FF"/>
			<stop  offset="1" style="stop-color:#893BFF"/>
		</linearGradient>
		<path style="fill:url(#SVGID_00000095299009890080039550000012416299111018411958_);" d="M1635.3,788.1L1635.3,788.1
			c1.1,4,5.2,6.4,9.2,5.3l0,0c4-1.1,6.4-5.2,5.3-9.2l0,0c-1.1-4-5.2-6.4-9.2-5.3l0,0C1636.6,780,1634.3,784.1,1635.3,788.1z"/>
		
			<linearGradient id="SVGID_00000144299659982384546640000004395220211621477013_" gradientUnits="userSpaceOnUse" x1="1792.2151" y1="785.6792" x2="1807.2151" y2="785.6792" gradientTransform="matrix(0.2614 0.9652 -0.9652 0.2614 1921.6652 -1118.1774)">
			<stop  offset="0" style="stop-color:#45B6FF"/>
			<stop  offset="1" style="stop-color:#893BFF"/>
		</linearGradient>
		<path style="fill:url(#SVGID_00000144299659982384546640000004395220211621477013_);" d="M1626.6,826.3L1626.6,826.3
			c1.1,4,5.2,6.4,9.2,5.3l0,0c4-1.1,6.4-5.2,5.3-9.2l0,0c-1.1-4-5.2-6.4-9.2-5.3l0,0C1627.9,818.2,1625.5,822.3,1626.6,826.3z"/>
		
			<linearGradient id="SVGID_00000077303277636900794480000001874550517169918857_" gradientUnits="userSpaceOnUse" x1="1768.6608" y1="832.2616" x2="1783.6608" y2="832.2616" gradientTransform="matrix(0.2614 0.9652 -0.9652 0.2614 1921.6652 -1118.1774)">
			<stop  offset="0" style="stop-color:#45B6FF"/>
			<stop  offset="1" style="stop-color:#893BFF"/>
		</linearGradient>
		<path style="fill:url(#SVGID_00000077303277636900794480000001874550517169918857_);" d="M1575.5,815.8L1575.5,815.8
			c1.1,4,5.2,6.4,9.2,5.3l0,0c4-1.1,6.4-5.2,5.3-9.2l0,0c-1.1-4-5.2-6.4-9.2-5.3v0C1576.8,807.6,1574.4,811.8,1575.5,815.8z"/>
		
			<linearGradient id="SVGID_00000085233119420225562270000008854273531254810549_" gradientUnits="userSpaceOnUse" x1="1781.6608" y1="866.2616" x2="1796.6608" y2="866.2616" gradientTransform="matrix(0.2614 0.9652 -0.9652 0.2614 1921.6652 -1118.1774)">
			<stop  offset="0" style="stop-color:#45B6FF"/>
			<stop  offset="1" style="stop-color:#893BFF"/>
		</linearGradient>
		<path style="fill:url(#SVGID_00000085233119420225562270000008854273531254810549_);" d="M1546.1,837.2L1546.1,837.2
			c1.1,4,5.2,6.4,9.2,5.3h0c4-1.1,6.4-5.2,5.3-9.2l0,0c-1.1-4-5.2-6.4-9.2-5.3l0,0C1547.3,829.1,1545,833.2,1546.1,837.2z"/>
	</g>
	
		<linearGradient id="SVGID_00000161596917098962352470000012499453887608950971_" gradientUnits="userSpaceOnUse" x1="-618.0202" y1="1116.5005" x2="-582.4858" y2="1116.5005" gradientTransform="matrix(0.4791 0.8778 -0.8778 0.4791 2833.7419 740.7191)">
		<stop  offset="0" style="stop-color:#45B6FF"/>
		<stop  offset="1" style="stop-color:#893BFF"/>
	</linearGradient>
	<circle style="fill:url(#SVGID_00000161596917098962352470000012499453887608950971_);" cx="1566.1" cy="748.8" r="17.8"/>
	
		<linearGradient id="SVGID_00000167386481282104127440000016500678117558743214_" gradientUnits="userSpaceOnUse" x1="0.6566" y1="711.1534" x2="1714.1859" y2="711.1534">
		<stop  offset="0.1583" style="stop-color:#D4F2F5"/>
		<stop  offset="1" style="stop-color:#45B6FF"/>
	</linearGradient>
	
		<path style="fill:none;stroke:url(#SVGID_00000167386481282104127440000016500678117558743214_);stroke-width:2;stroke-miterlimit:10;" d="
		M1714,706c-74,14-170-10-170-10c-20.3-6.4-40.8-11.4-61-15.3c-193-37.3-374,27.3-374,27.3s-11.4,3.6-32,8.8
		c-20.8,5.2-50.9,11.9-88.3,18.2h0c0,0,0,0,0,0c-111.8,18.8-288.4,33.5-473.9-10.8h0c-7.1-1.7-14.3-3.5-21.4-5.4
		c-5.4-1.4-10.8-2.8-16.2-4.1c-14.2-3.5-28-6.7-41.6-9.6h0c-46.4-9.8-89.6-16-129.3-19.5h0c-97.3-8.6-174.1-1.2-227.5,8.8
		c-28.5,5.3-50.4,11.4-65.2,16.2h0c-1.6,0.5-3.1,1-4.6,1.5c-3,1-5.6,1.9-7.9,2.8"/>
	
		<linearGradient id="SVGID_00000150823969911325515380000017476998535001412024_" gradientUnits="userSpaceOnUse" x1="-558.6755" y1="998.7311" x2="-535.4714" y2="998.7311" gradientTransform="matrix(0.9099 -0.4147 0.4147 0.9099 1804.2197 -431.6223)">
		<stop  offset="0" style="stop-color:#45B6FF"/>
		<stop  offset="1" style="stop-color:#893BFF"/>
	</linearGradient>
	<circle style="fill:url(#SVGID_00000150823969911325515380000017476998535001412024_);" cx="1720.6" cy="704.1" r="11.6"/>
	
		<linearGradient id="SVGID_00000053518088642361770370000013969534512545157032_" gradientUnits="userSpaceOnUse" x1="255.5914" y1="790.2115" x2="591.0336" y2="328.515">
		<stop  offset="0" style="stop-color:#1876C8"/>
		<stop  offset="0.3685" style="stop-color:#55B7D8"/>
		<stop  offset="0.5591" style="stop-color:#70D3DF"/>
		<stop  offset="0.5692" style="stop-color:#74D2DF"/>
		<stop  offset="0.7174" style="stop-color:#B0C7DA"/>
		<stop  offset="0.8437" style="stop-color:#DBC0D7"/>
		<stop  offset="0.9419" style="stop-color:#F5BBD5"/>
		<stop  offset="1" style="stop-color:#FFB9D4"/>
	</linearGradient>
	<path style="opacity:0.5;fill:url(#SVGID_00000053518088642361770370000013969534512545157032_);" d="M880.7,539
		c0,0-1.6-0.6-4.5-1.7c-15.3-5.5-67.1-22.1-117.9-15.6c-20.1,2.5-40,8.7-57.5,20.6c-59.3,40.4-98.5,92.1-143.4,129.3
		c-23.8,19.7-49.2,35.3-80.2,43c-9.6,2.4-19.8,4-30.7,4.8c-15.7,1.1-30.3,0.7-44.1-0.9c-36.7-4.2-67.2-16.9-96.3-33
		c-23.9-13.3-46.8-28.8-71.4-43.8c-21.8-13.3-45-26.2-71.2-36.6c-4-1.6-8-3.1-12.1-4.5C82.3,576.2,36.3,586.1,1,605.2v-73.8
		c2.8-0.8,5.7-1.6,8.6-2.3c45.6-10.9,101.8-6.5,164.1,36.4c134.5,92.7,263.5,98.5,375.5,0.2c45.5-39.9,92.9-58.6,137.2-65.2
		c51.5-7.7,98.7,1.1,133.7,12.2c29.7,9.4,50.6,20.5,57.8,24.5C879.8,538.4,880.7,539,880.7,539z"/>
	<g class="st40">
		
			<linearGradient id="SVGID_00000070106505231659732390000010233949803063715717_" gradientUnits="userSpaceOnUse" x1="0.6731" y1="707.9139" x2="1648.8066" y2="707.9139">
			<stop  offset="0.1583" style="stop-color:#D4F2F5"/>
			<stop  offset="1" style="stop-color:#45B6FF"/>
		</linearGradient>
		
			<path style="fill:none;stroke:url(#SVGID_00000070106505231659732390000010233949803063715717_);stroke-width:1.9093;stroke-miterlimit:10;" d="
			M1648.8,640.8c-5.8,0-11.7,0.2-17.7,0.5c-44.7,2.3-96,12.7-148.1,39.3c-11.6,5.9-23.3,12.7-35,20.3c-14.4,9.4-28.8,17.8-43.2,25.1
			c-78.1,39.7-155.4,49.9-217.6,48.9c-2.5,0-4.9-0.1-7.3-0.2c-44.6-1.4-80.7-8.4-102.8-13.9c-6.9-1.7-12.4-3.3-16.4-4.5
			c-5-1.5-7.6-2.4-7.6-2.4c-24.2-7-45.1-13.3-64.3-19c0,0,0,0,0,0c-2.7-0.8-5.4-1.6-8.1-2.4c-45.2-13.5-81.4-24.4-129.6-36.6
			c-63.8-16.2-111.4-34.9-222-31c-26.1,0.9-49.8,3.3-71.6,6.6c-48.4,7.5-87.3,20.1-121.8,33.5c-11.5,4.5-22.4,9-33.1,13.5
			C350.7,740.4,306,760.8,247,762c-11.7,0.2-23,0.1-33.8-0.3c-36.4-1.5-67.2-6.3-92-12C75.8,739.3,51,726,51,726
			s-11.7-5.4-30.5-12.8c-2.2-0.9-4.6-1.8-7-2.7c-3.9-1.5-8.1-3.1-12.5-4.7"/>
		
			<linearGradient id="SVGID_00000170266089334161342020000002090105239532976532_" gradientUnits="userSpaceOnUse" x1="628.8491" y1="1093.6873" x2="664.2758" y2="1093.6873" gradientTransform="matrix(0.9965 8.372513e-02 -8.372513e-02 0.9965 1096.0725 -503.1797)">
			<stop  offset="0" style="stop-color:#45B6FF"/>
			<stop  offset="1" style="stop-color:#893BFF"/>
		</linearGradient>
		<circle style="fill:url(#SVGID_00000170266089334161342020000002090105239532976532_);" cx="1648.8" cy="640.8" r="17.7"/>
	</g>
	
		<linearGradient id="SVGID_00000039856542678031339980000012013521121069667516_" gradientUnits="userSpaceOnUse" x1="0.6959" y1="473.9876" x2="1590.379" y2="473.9876">
		<stop  offset="0" style="stop-color:#D4F2F5"/>
		<stop  offset="0.1151" style="stop-color:#C7ECF6"/>
		<stop  offset="0.3296" style="stop-color:#A4DEF8"/>
		<stop  offset="0.6177" style="stop-color:#6BC6FC"/>
		<stop  offset="0.7971" style="stop-color:#45B6FF"/>
	</linearGradient>
	
		<path style="fill:none;stroke:url(#SVGID_00000039856542678031339980000012013521121069667516_);stroke-width:1.5;stroke-miterlimit:10;" d="
		M1590,455c-115.5-67.6-235-45.3-306.4-20.3C1243,448.9,1218,464,1218,464s-115.5,65.2-281.2,73.1c-19,0.9-38.7,1.1-58.9,0.3
		c-0.6,0-1.1,0-1.7-0.1c-37.6-1.5-77.1-6.3-117.9-15.6c-6.5-1.5-13-3-19.6-4.8c-13.9-3.6-28-7.7-42.2-12.5c-3.4-1.3-6.7-2.6-10-3.9
		c-22.3-8.5-44.3-15.9-66-22.5c-191.5-57.5-360.1-41.7-484.6-9C82.1,483.2,36.6,500.4,1,516.2"/>
	<g>
		
			<linearGradient id="SVGID_00000025435472871477698950000010614183007018171796_" gradientUnits="userSpaceOnUse" x1="-583.2266" y1="727.4843" x2="-525.8513" y2="727.4843" gradientTransform="matrix(0.9099 -0.4147 0.4147 0.9099 1804.2197 -431.6223)">
			<stop  offset="0" style="stop-color:#45B6FF"/>
			<stop  offset="1" style="stop-color:#893BFF"/>
		</linearGradient>
		
			<circle style="opacity:0.2;fill:url(#SVGID_00000025435472871477698950000010614183007018171796_);" cx="1601.3" cy="460.3" r="28.7"/>
		
			<linearGradient id="SVGID_00000145025519133856038200000011527856420761157815_" gradientUnits="userSpaceOnUse" x1="-571.2228" y1="727.4843" x2="-537.8551" y2="727.4843" gradientTransform="matrix(0.9099 -0.4147 0.4147 0.9099 1804.2197 -431.6223)">
			<stop  offset="0" style="stop-color:#45B6FF"/>
			<stop  offset="1" style="stop-color:#893BFF"/>
		</linearGradient>
		<circle style="fill:url(#SVGID_00000145025519133856038200000011527856420761157815_);" cx="1601.3" cy="460.3" r="16.7"/>
	</g>
	
		<image style="display:none;overflow:visible;" width="535" height="955" xlink:href="../../../../../../../../../../Desktop/Screen Shot 2021-11-15 at 9.34.29 PM.png"  transform="matrix(1 0 0 1 693 150)">
	</image>
</g>
</svg>
