<?xml version="1.0" encoding="utf-8"?>
<!-- Generator: Adobe Illustrator 26.0.1, SVG Export Plug-In . SVG Version: 6.00 Build 0)  -->
<svg version="1.1" id="Layer_1" xmlns="http://www.w3.org/2000/svg" xmlns:xlink="http://www.w3.org/1999/xlink" x="0px" y="0px"
	 viewBox="0 0 385 38" style="enable-background:new 0 0 385 38;" xml:space="preserve">
<style type="text/css">
	.st0{opacity:0.65;fill:url(#SVGID_1_);enable-background:new    ;}
	.st1{opacity:0.65;fill:url(#SVGID_00000078008893136197878080000000285137501521031575_);enable-background:new    ;}
</style>
<linearGradient id="SVGID_1_" gradientUnits="userSpaceOnUse" x1="39.8978" y1="-67.105" x2="328.6602" y2="99.6122" gradientTransform="matrix(1 0 0 -1 0 40)">
	<stop  offset="0" style="stop-color:#166EBB"/>
	<stop  offset="0.3184" style="stop-color:#1870BC"/>
	<stop  offset="0.4746" style="stop-color:#1F78BE"/>
	<stop  offset="0.5954" style="stop-color:#2A85C3"/>
	<stop  offset="0.6982" style="stop-color:#3B98CA"/>
	<stop  offset="0.7893" style="stop-color:#51B0D2"/>
	<stop  offset="0.8711" style="stop-color:#6BCDDD"/>
	<stop  offset="0.8856" style="stop-color:#70D3DF"/>
	<stop  offset="0.9213" style="stop-color:#A0BED4"/>
	<stop  offset="0.9749" style="stop-color:#E4A1C5"/>
	<stop  offset="1" style="stop-color:#FF96BF"/>
</linearGradient>
<path class="st0" d="M385,38H0V0h314.1c5.6,11.8,18.3,16.3,32.1,17.8c8.4,0.9,16.1,2.1,26.2,7.8c1.9,1.1,4.8,2.7,8.2,6.3
	C383.4,34.8,385,38,385,38z"/>
<linearGradient id="SVGID_00000111191389574784338420000008236841030826771382_" gradientUnits="userSpaceOnUse" x1="0" y1="21" x2="378.2583" y2="21" gradientTransform="matrix(1 0 0 -1 0 40)">
	<stop  offset="0" style="stop-color:#166EBB"/>
	<stop  offset="0.2986" style="stop-color:#1870BC"/>
	<stop  offset="0.4425" style="stop-color:#1F78BE"/>
	<stop  offset="0.5533" style="stop-color:#2A85C3"/>
	<stop  offset="0.6472" style="stop-color:#3B97CA"/>
	<stop  offset="0.7304" style="stop-color:#50AFD2"/>
	<stop  offset="0.8049" style="stop-color:#6ACCDD"/>
	<stop  offset="0.8194" style="stop-color:#70D3DF"/>
	<stop  offset="0.8913" style="stop-color:#AEC8DA"/>
	<stop  offset="0.9647" style="stop-color:#E8BDD6"/>
	<stop  offset="1" style="stop-color:#FFB9D4"/>
</linearGradient>
<path style="opacity:0.65;fill:url(#SVGID_00000111191389574784338420000008236841030826771382_);enable-background:new    ;" d="
	M375,38H0V0h279.9c10.5,14.9,25.7,27.4,57.1,27.4c16.6,0,28.3,1.9,37.8,7.8c0.8,0.5,0.8,0.5,2.1,1.5c0.9,0.7,1.4,1.3,1.4,1.3H375z"
	/>
</svg>
